<svg width="1920" height="1076" viewBox="0 0 1920 1076" fill="none" xmlns="http://www.w3.org/2000/svg">
<g clip-path="url(#clip0_33_3)">
<path d="M235.8 1049.1L343.48 1049.1L343.48 941.5L235.8 941.5L235.8 1049.1Z" fill="#F7F7F7"/>
<path d="M289.64 1049.1L343.48 1049.1L343.48 995.3L289.64 995.3L289.64 1049.1Z" fill="#C7516D"/>
<path d="M343.48 1049.1C343.48 1034.83 337.808 1021.15 327.711 1011.06C317.614 1000.97 303.919 995.3 289.64 995.3L289.64 1049.1L343.48 1049.1Z" fill="#C7516D"/>
<path d="M289.64 995.3L343.48 995.3L343.48 941.5L289.64 941.5L289.64 995.3Z" fill="#C7516D"/>
<path d="M316.56 995.3L289.64 968.4L316.56 941.5L343.48 968.4L316.56 995.3Z" fill="#C7516D"/>
<path d="M101.2 1049.1L208.88 1049.1L208.88 941.5L101.2 941.5L101.2 1049.1Z" fill="#F7F7F7"/>
<path d="M155.04 995.3L208.88 995.3L208.88 941.5L155.04 941.5L155.04 995.3Z" fill="#C7516D"/>
<path d="M208.88 941.5C208.88 955.769 203.208 969.453 193.111 979.542C183.014 989.632 169.319 995.3 155.04 995.3L208.88 941.5C194.601 941.5 180.906 947.168 170.809 957.258C160.712 967.347 155.04 981.031 155.04 995.3" fill="#C7516D"/>
<path d="M-33.4001 1049.1L74.2799 1049.1L74.2799 941.5L-33.4001 941.5L-33.4001 1049.1Z" fill="#F7F7F7"/>
<path d="M-33.4001 1049.1L20.4399 1049.1L20.4399 995.3L-33.4 995.3L-33.4001 1049.1Z" fill="#C7516D"/>
<path d="M20.4399 995.3C20.4399 1009.57 14.7675 1023.25 4.67057 1033.34C-5.42639 1043.43 -19.1208 1049.1 -33.4001 1049.1L20.4399 995.3C6.16069 995.3 -7.53371 1000.97 -17.6307 1011.06C-27.7276 1021.15 -33.4 1034.83 -33.4001 1049.1" fill="#C7516D"/>
<path d="M370.4 914.6L478.08 914.6L478.08 807L370.4 807L370.4 914.6Z" fill="#F7F7F7"/>
<path d="M424.24 914.6L478.08 914.6L478.08 860.8L424.24 860.8L424.24 914.6Z" fill="#C7516D"/>
<path d="M478.08 860.8C463.801 860.8 450.106 866.468 440.009 876.558C429.912 886.647 424.24 900.331 424.24 914.6L478.08 914.6L478.08 860.8Z" fill="#C7516D"/>
<path d="M424.24 860.8L478.08 860.8L478.08 807L424.24 807L424.24 860.8Z" fill="#C7516D"/>
<path d="M451.16 860.8L424.24 833.9L451.16 807L478.08 833.9L451.16 860.8Z" fill="#C7516D"/>
<path d="M370.4 860.8L424.24 860.8L424.24 807L370.4 807L370.4 860.8Z" fill="#C7516D"/>
<path d="M424.24 860.8C409.961 860.8 396.266 855.132 386.169 845.042C376.072 834.953 370.4 821.269 370.4 807L424.24 860.8C424.24 846.531 418.568 832.847 408.471 822.758C398.374 812.668 384.679 807 370.4 807" fill="#C7516D"/>
<path d="M370.4 780.1L478.08 780.1L478.08 672.5L370.4 672.5L370.4 780.1Z" fill="#C7516D"/>
<path d="M478.08 672.5C449.521 672.5 422.133 683.836 401.939 704.015C381.745 724.194 370.4 751.563 370.4 780.1L478.08 780.1L478.08 672.5Z" fill="#C7516D"/>
<path d="M-33.4 645.6L74.2799 645.6L74.2799 538L-33.4 538L-33.4 645.6Z" fill="#C7516D"/>
<path d="M20.4399 645.6L-33.4001 591.8L20.4399 538L74.2799 591.8L20.4399 645.6Z" fill="#C7516D"/>
<path d="M235.8 376.6L343.48 376.6L343.48 269L235.8 269L235.8 376.6Z" fill="#F7F7F7"/>
<path d="M235.8 376.6L289.64 376.6L289.64 322.8L235.8 322.8L235.8 376.6Z" fill="#C7516D"/>
<path d="M262.72 376.6L235.8 349.7L262.72 322.8L289.64 349.7L262.72 376.6Z" fill="#C7516D"/>
<path d="M-33.4 376.6L74.28 376.6L74.28 269L-33.4 269L-33.4 376.6Z" fill="#F7F7F7"/>
<path d="M20.44 322.8L74.28 322.8L74.28 269L20.44 269L20.44 322.8Z" fill="#C7516D"/>
<path d="M47.36 322.8L20.44 295.9L47.36 269L74.28 295.9L47.36 322.8Z" fill="#C7516D"/>
<path d="M370.4 242.1L478.08 242.1L478.08 134.5L370.4 134.5L370.4 242.1Z" fill="#F7F7F7"/>
<path d="M424.24 242.1L478.08 242.1L478.08 188.3L424.24 188.3L424.24 242.1Z" fill="#C7516D"/>
<path d="M478.08 242.1C463.801 242.1 450.106 236.432 440.009 226.342C429.912 216.253 424.24 202.569 424.24 188.3L478.08 242.1C478.08 227.831 472.408 214.147 462.311 204.058C452.214 193.968 438.519 188.3 424.24 188.3" fill="#C7516D"/>
<path d="M370.4 188.3L424.24 188.3L424.24 134.5L370.4 134.5L370.4 188.3Z" fill="#C7516D"/>
<path d="M397.32 188.3L370.4 161.4L397.32 134.5L424.24 161.4L397.32 188.3Z" fill="#C7516D"/>
<path d="M235.8 242.1L343.48 242.1L343.48 134.5L235.8 134.5L235.8 242.1Z" fill="#C7516D"/>
<path d="M343.48 242.1C343.48 213.563 332.135 186.194 311.941 166.015C291.747 145.836 264.359 134.5 235.8 134.5L235.8 242.1L343.48 242.1Z" fill="#C7516D"/>
<path d="M101.2 107.6L208.88 107.6L208.88 -0.000183105L101.2 -0.000192519L101.2 107.6Z" fill="#C7516D"/>
</g>
<g clip-path="url(#clip1_33_3)">
<path d="M1684.2 26.9L1576.52 26.9L1576.52 134.5L1684.2 134.5L1684.2 26.9Z" fill="#F7F7F7"/>
<path d="M1630.36 26.9L1576.52 26.9L1576.52 80.7L1630.36 80.7L1630.36 26.9Z" fill="#C7516D"/>
<path d="M1576.52 26.9C1576.52 41.1686 1582.19 54.8529 1592.29 64.9423C1602.39 75.0318 1616.08 80.7 1630.36 80.7L1630.36 26.9L1576.52 26.9Z" fill="#C7516D"/>
<path d="M1630.36 80.7L1576.52 80.7L1576.52 134.5L1630.36 134.5L1630.36 80.7Z" fill="#C7516D"/>
<path d="M1603.44 80.7L1630.36 107.6L1603.44 134.5L1576.52 107.6L1603.44 80.7Z" fill="#C7516D"/>
<path d="M1818.8 26.9L1711.12 26.9L1711.12 134.5L1818.8 134.5L1818.8 26.9Z" fill="#F7F7F7"/>
<path d="M1764.96 80.7L1711.12 80.7L1711.12 134.5L1764.96 134.5L1764.96 80.7Z" fill="#C7516D"/>
<path d="M1711.12 134.5C1711.12 120.231 1716.79 106.547 1726.89 96.4577C1736.99 86.3682 1750.68 80.7 1764.96 80.7L1711.12 134.5C1725.4 134.5 1739.09 128.832 1749.19 118.742C1759.29 108.653 1764.96 94.9687 1764.96 80.7" fill="#C7516D"/>
<path d="M1953.4 26.9001L1845.72 26.9001L1845.72 134.5L1953.4 134.5L1953.4 26.9001Z" fill="#F7F7F7"/>
<path d="M1953.4 26.9001L1899.56 26.9001L1899.56 80.7001L1953.4 80.7001L1953.4 26.9001Z" fill="#C7516D"/>
<path d="M1899.56 80.7001C1899.56 66.4314 1905.23 52.7472 1915.33 42.6577C1925.43 32.5683 1939.12 26.9001 1953.4 26.9001L1899.56 80.7001C1913.84 80.7001 1927.53 75.0319 1937.63 64.9424C1947.73 54.8529 1953.4 41.1687 1953.4 26.9001" fill="#C7516D"/>
<path d="M1549.6 161.4L1441.92 161.4L1441.92 269L1549.6 269L1549.6 161.4Z" fill="#F7F7F7"/>
<path d="M1495.76 161.4L1441.92 161.4L1441.92 215.2L1495.76 215.2L1495.76 161.4Z" fill="#C7516D"/>
<path d="M1441.92 215.2C1456.2 215.2 1469.89 209.532 1479.99 199.442C1490.09 189.353 1495.76 175.669 1495.76 161.4L1441.92 161.4L1441.92 215.2Z" fill="#C7516D"/>
<path d="M1495.76 215.2L1441.92 215.2L1441.92 269L1495.76 269L1495.76 215.2Z" fill="#C7516D"/>
<path d="M1468.84 215.2L1495.76 242.1L1468.84 269L1441.92 242.1L1468.84 215.2Z" fill="#C7516D"/>
<path d="M1549.6 215.2L1495.76 215.2L1495.76 269L1549.6 269L1549.6 215.2Z" fill="#C7516D"/>
<path d="M1495.76 215.2C1510.04 215.2 1523.73 220.868 1533.83 230.958C1543.93 241.047 1549.6 254.731 1549.6 269L1495.76 215.2C1495.76 229.469 1501.43 243.153 1511.53 253.242C1521.63 263.332 1535.32 269 1549.6 269" fill="#C7516D"/>
<path d="M1549.6 295.9L1441.92 295.9L1441.92 403.5L1549.6 403.5L1549.6 295.9Z" fill="#C7516D"/>
<path d="M1441.92 403.5C1470.48 403.5 1497.87 392.164 1518.06 371.985C1538.26 351.806 1549.6 324.437 1549.6 295.9L1441.92 295.9L1441.92 403.5Z" fill="#C7516D"/>
<path d="M1953.4 430.4L1845.72 430.4L1845.72 538L1953.4 538L1953.4 430.4Z" fill="#C7516D"/>
<path d="M1899.56 430.4L1953.4 484.2L1899.56 538L1845.72 484.2L1899.56 430.4Z" fill="#C7516D"/>
<path d="M1684.2 699.4L1576.52 699.4L1576.52 807L1684.2 807L1684.2 699.4Z" fill="#F7F7F7"/>
<path d="M1684.2 699.4L1630.36 699.4L1630.36 753.2L1684.2 753.2L1684.2 699.4Z" fill="#C7516D"/>
<path d="M1657.28 699.4L1684.2 726.3L1657.28 753.2L1630.36 726.3L1657.28 699.4Z" fill="#C7516D"/>
<path d="M1953.4 699.4L1845.72 699.4L1845.72 807L1953.4 807L1953.4 699.4Z" fill="#F7F7F7"/>
<path d="M1899.56 753.2L1845.72 753.2L1845.72 807L1899.56 807L1899.56 753.2Z" fill="#C7516D"/>
<path d="M1872.64 753.2L1899.56 780.1L1872.64 807L1845.72 780.1L1872.64 753.2Z" fill="#C7516D"/>
<path d="M1549.6 833.9L1441.92 833.9L1441.92 941.5L1549.6 941.5L1549.6 833.9Z" fill="#F7F7F7"/>
<path d="M1495.76 833.9L1441.92 833.9L1441.92 887.7L1495.76 887.7L1495.76 833.9Z" fill="#C7516D"/>
<path d="M1441.92 833.9C1456.2 833.9 1469.89 839.568 1479.99 849.658C1490.09 859.747 1495.76 873.431 1495.76 887.7L1441.92 833.9C1441.92 848.169 1447.59 861.853 1457.69 871.942C1467.79 882.032 1481.48 887.7 1495.76 887.7" fill="#C7516D"/>
<path d="M1549.6 887.7L1495.76 887.7L1495.76 941.5L1549.6 941.5L1549.6 887.7Z" fill="#C7516D"/>
<path d="M1522.68 887.7L1549.6 914.6L1522.68 941.5L1495.76 914.6L1522.68 887.7Z" fill="#C7516D"/>
<path d="M1684.2 833.9L1576.52 833.9L1576.52 941.5L1684.2 941.5L1684.2 833.9Z" fill="#C7516D"/>
<path d="M1576.52 833.9C1576.52 862.437 1587.86 889.806 1608.06 909.985C1628.25 930.164 1655.64 941.5 1684.2 941.5L1684.2 833.9L1576.52 833.9Z" fill="#C7516D"/>
<path d="M1818.8 968.4L1711.12 968.4L1711.12 1076L1818.8 1076L1818.8 968.4Z" fill="#C7516D"/>
</g>
<defs>
<clipPath id="clip0_33_3">
<rect width="673" height="1076" fill="white" transform="translate(505 1076) rotate(-180)"/>
</clipPath>
<clipPath id="clip1_33_3">
<rect width="673" height="1076" fill="white" transform="translate(1415)"/>
</clipPath>
</defs>
</svg>
