<svg width="179" height="179" viewBox="0 0 179 179" fill="none" xmlns="http://www.w3.org/2000/svg">
<g clip-path="url(#clip0_41_2)">
<rect width="179" height="179" rx="27" fill="white"/>
<path d="M142.114 119.799L126.061 91.447H119.182V119.799H104.589V47.0426H131.899C137.527 47.0426 142.322 48.0502 146.283 50.0654C150.244 52.0112 153.198 54.6865 155.143 58.0916C157.158 61.4271 158.166 65.1796 158.166 69.349C158.166 74.1439 156.776 78.487 153.997 82.3785C151.217 86.2005 147.082 88.8411 141.593 90.3004L159 119.799H142.114ZM119.182 80.5022H131.378C135.338 80.5022 138.292 79.5641 140.238 77.6879C142.183 75.7421 143.156 73.0668 143.156 69.6617C143.156 66.3262 142.183 63.755 140.238 61.9483C138.292 60.0721 135.338 59.1339 131.378 59.1339H119.182V80.5022Z" fill="#0F1841"/>
<path d="M76.7466 132.62L65.6976 119.382C62.64 120.146 59.5129 120.528 56.3164 120.528C49.5063 120.528 43.2522 118.93 37.5539 115.734C31.8557 112.537 27.3389 108.124 24.0033 102.496C20.6678 96.7975 19 90.3696 19 83.2121C19 76.1241 20.6678 69.7657 24.0033 64.137C27.3389 58.4388 31.8557 53.9914 37.5539 50.7948C43.2522 47.5983 49.5063 46 56.3164 46C63.1959 46 69.4501 47.5983 75.0788 50.7948C80.777 53.9914 85.2591 58.4388 88.5252 64.137C91.8607 69.7657 93.5285 76.1241 93.5285 83.2121C93.5285 89.6747 92.1387 95.5814 89.3591 100.932C86.6489 106.213 82.9312 110.522 78.2059 113.857L94.8836 132.62H76.7466ZM34.0099 83.2121C34.0099 88.0765 34.9481 92.3501 36.8243 96.0331C38.7005 99.7161 41.3064 102.565 44.642 104.58C48.047 106.526 51.9385 107.499 56.3164 107.499C60.6943 107.499 64.551 106.526 67.8865 104.58C71.2221 102.565 73.828 99.7161 75.7042 96.0331C77.5804 92.3501 78.5186 88.0765 78.5186 83.2121C78.5186 78.3478 77.5804 74.1089 75.7042 70.4954C73.828 66.8124 71.2221 63.998 67.8865 62.0523C64.551 60.1066 60.6943 59.1337 56.3164 59.1337C51.9385 59.1337 48.047 60.1066 44.642 62.0523C41.3064 63.998 38.7005 66.8124 36.8243 70.4954C34.9481 74.1089 34.0099 78.3478 34.0099 83.2121Z" fill="#0F1841"/>
<path d="M57 91C54.4186 91 52.2558 90.2053 50.5116 88.6159C48.8372 86.9573 48 84.9187 48 82.5C48 80.0813 48.8372 78.0772 50.5116 76.4878C52.2558 74.8293 54.4186 74 57 74C59.5814 74 61.7093 74.8293 63.3837 76.4878C65.1279 78.0772 66 80.0813 66 82.5C66 84.9187 65.1279 86.9573 63.3837 88.6159C61.7093 90.2053 59.5814 91 57 91Z" fill="#5AC5B1"/>
<path d="M57 91C54.4186 91 52.2558 90.2053 50.5116 88.6159C48.8372 86.9573 48 84.9187 48 82.5C48 80.0813 48.8372 78.0772 50.5116 76.4878C52.2558 74.8293 54.4186 74 57 74C59.5814 74 61.7093 74.8293 63.3837 76.4878C65.1279 78.0772 66 80.0813 66 82.5C66 84.9187 65.1279 86.9573 63.3837 88.6159C61.7093 90.2053 59.5814 91 57 91Z" fill="#5AC5B1"/>
</g>
<defs>
<clipPath id="clip0_41_2">
<rect width="179" height="179" fill="white"/>
</clipPath>
</defs>
</svg>
