<svg width="128" height="41" viewBox="0 0 128 41" fill="none" xmlns="http://www.w3.org/2000/svg">
<path d="M128 8.42276L114.594 40.3159H108.77L113.46 29.5285L104.784 8.42276H110.92L116.509 23.5485L122.176 8.42276H128Z" fill="#0F1841"/>
<path d="M98.5029 12.9175V23.3922C98.5029 24.1218 98.6723 24.656 99.011 24.9947C99.3758 25.3074 99.9751 25.4637 100.809 25.4637H103.349V30.0757H99.91C95.298 30.0757 92.992 27.8349 92.992 23.3531V12.9175H90.4124V8.42278H92.992V3.06818H98.5029V8.42278H103.349V12.9175H98.5029Z" fill="#0F1841"/>
<path d="M86.4611 13.4592C86.852 14.1361 87.1586 14.7715 87.381 15.3651L73.6724 23.2798C74.5669 24.5686 75.6531 25.3556 76.931 25.6408C78.2089 25.9259 79.4571 25.7168 80.6757 25.0132C82.4358 23.997 83.2517 22.518 83.1235 20.5762L88.2346 17.6253C88.7353 19.7432 88.5571 21.8319 87.7001 23.8912C86.8301 25.928 85.2781 27.5912 83.0441 28.881C81.2389 29.9233 79.3862 30.4664 77.486 30.5104C75.5953 30.5189 73.8204 30.0242 72.1612 29.0264C70.5246 28.0157 69.1526 26.5512 68.0452 24.6332C66.9247 22.6925 66.336 20.7608 66.279 18.8381C66.2219 16.9153 66.6762 15.1487 67.6419 13.5381C68.6075 11.9275 70.0155 10.5881 71.8659 9.51977C73.6486 8.49054 75.4609 7.95566 77.303 7.91514C79.1676 7.86159 80.8938 8.32415 82.4819 9.30282C84.0794 10.2459 85.4058 11.6313 86.4611 13.4592ZM80.7714 14.9389C80.0453 13.7333 79.0451 13.0171 77.7707 12.7901C76.4832 12.5405 75.219 12.7739 73.9779 13.4905C72.8045 14.168 72.02 15.1023 71.6246 16.2934C71.2387 17.4489 71.3202 18.7106 71.8693 20.0785L80.7714 14.9389Z" fill="#0F1841"/>
<path d="M59.8455 6.40984C58.8814 6.40984 58.0736 6.11019 57.4222 5.51089C56.7969 4.88553 56.4842 4.11686 56.4842 3.20489C56.4842 2.29291 56.7969 1.53727 57.4222 0.93797C58.0736 0.312614 58.8814 -6.10352e-05 59.8455 -6.10352e-05C60.8096 -6.10352e-05 61.6043 0.312614 62.2296 0.93797C62.8811 1.53727 63.2068 2.29291 63.2068 3.20489C63.2068 4.11686 62.8811 4.88553 62.2296 5.51089C61.6043 6.11019 60.8096 6.40984 59.8455 6.40984ZM62.6033 8.42266V30.0756H57.1315V8.42266H62.6033Z" fill="#0F1841"/>
<path d="M59.8455 6.40984C58.8814 6.40984 58.0736 6.11019 57.4222 5.51089C56.7969 4.88553 56.4842 4.11686 56.4842 3.20489C56.4842 2.29291 56.7969 1.53727 57.4222 0.93797C58.0736 0.312614 58.8814 -6.10352e-05 59.8455 -6.10352e-05C60.8096 -6.10352e-05 61.6043 0.312614 62.2296 0.93797C62.8811 1.53727 63.2068 2.29291 63.2068 3.20489C63.2068 4.11686 62.8811 4.88553 62.2296 5.51089C61.6043 6.11019 60.8096 6.40984 59.8455 6.40984ZM62.6033 8.42266V30.0756H57.1315V8.42266H62.6033Z" fill="#0F1841"/>
<path d="M59.8455 6.40984C58.8814 6.40984 58.0736 6.11019 57.4222 5.51089C56.7969 4.88553 56.4842 4.11686 56.4842 3.20489C56.4842 2.29291 56.7969 1.53727 57.4222 0.93797C58.0736 0.312614 58.8814 -6.10352e-05 59.8455 -6.10352e-05C60.8096 -6.10352e-05 61.6043 0.312614 62.2296 0.93797C62.8811 1.53727 63.2068 2.29291 63.2068 3.20489C63.2068 4.11686 62.8811 4.88553 62.2296 5.51089C61.6043 6.11019 60.8096 6.40984 59.8455 6.40984Z" fill="#8F5CFC"/>
<path d="M59.8455 6.40984C58.8814 6.40984 58.0736 6.11019 57.4222 5.51089C56.7969 4.88553 56.4842 4.11686 56.4842 3.20489C56.4842 2.29291 56.7969 1.53727 57.4222 0.93797C58.0736 0.312614 58.8814 -6.10352e-05 59.8455 -6.10352e-05C60.8096 -6.10352e-05 61.6043 0.312614 62.2296 0.93797C62.8811 1.53727 63.2068 2.29291 63.2068 3.20489C63.2068 4.11686 62.8811 4.88553 62.2296 5.51089C61.6043 6.11019 60.8096 6.40984 59.8455 6.40984Z" fill="#8F5CFC"/>
<path d="M46.1634 30.0757L40.1443 19.4447H37.5647V30.0757H32.0929V2.79459H42.3331C44.4436 2.79459 46.2415 3.1724 47.7267 3.92804C49.212 4.65762 50.3194 5.6608 51.049 6.93757C51.8046 8.18828 52.1824 9.59533 52.1824 11.1587C52.1824 12.9566 51.6613 14.5851 50.619 16.0443C49.5768 17.4774 48.0264 18.4676 45.9679 19.0147L52.4951 30.0757H46.1634ZM37.5647 15.3408H42.1376C43.6229 15.3408 44.7303 14.989 45.4598 14.2855C46.1894 13.5559 46.5542 12.5527 46.5542 11.276C46.5542 10.0253 46.1894 9.06117 45.4598 8.3837C44.7303 7.68018 43.6229 7.32841 42.1376 7.32841H37.5647V15.3408Z" fill="#0F1841"/>
<path d="M21.6529 34.8831L17.51 29.9193C16.3635 30.2059 15.1909 30.3492 13.9923 30.3492C11.4388 30.3492 9.09371 29.7499 6.95708 28.5513C4.82045 27.3527 3.12678 25.6981 1.87607 23.5876C0.625355 21.4509 0 19.0407 0 16.3569C0 13.6991 0.625355 11.315 1.87607 9.2044C3.12678 7.06776 4.82045 5.40015 6.95708 4.20155C9.09371 3.00295 11.4388 2.40366 13.9923 2.40366C16.5719 2.40366 18.917 3.00295 21.0276 4.20155C23.1642 5.40015 24.8448 7.06776 26.0695 9.2044C27.3202 11.315 27.9456 13.6991 27.9456 16.3569C27.9456 18.7802 27.4244 20.995 26.3822 23.0013C25.366 24.9816 23.972 26.5971 22.2001 27.8478L28.4537 34.8831H21.6529ZM5.6282 16.3569C5.6282 18.1809 5.97996 19.7833 6.68349 21.1643C7.38701 22.5453 8.36413 23.6136 9.61484 24.3693C10.8916 25.0988 12.3508 25.4636 13.9923 25.4636C15.6339 25.4636 17.08 25.0988 18.3307 24.3693C19.5814 23.6136 20.5586 22.5453 21.2621 21.1643C21.9656 19.7833 22.3174 18.1809 22.3174 16.3569C22.3174 14.5329 21.9656 12.9435 21.2621 11.5886C20.5586 10.2076 19.5814 9.15228 18.3307 8.4227C17.08 7.69312 15.6339 7.32833 13.9923 7.32833C12.3508 7.32833 10.8916 7.69312 9.61484 8.4227C8.36413 9.15228 7.38701 10.2076 6.68349 11.5886C5.97996 12.9435 5.6282 14.5329 5.6282 16.3569Z" fill="#0F1841"/>
</svg>
